<?xml version='1.0' encoding='ASCII' standalone='yes'?>
<svg xmlns:xlink="http://www.w3.org/1999/xlink" xmlns="http://www.w3.org/2000/svg" version="1.1" width="400" viewBox="0 0 400 300" height="300" fill="none" stroke="none">
  <g>
    <g transform="translate(-140, -100) scale(0.578703703704) ">
      <clipPath id="p.0">
        <path d="m0 0l1152.0 0l0 864.0l-1152.0 0l0 -864.0z" clip-rule="nonzero"/>
      </clipPath>
      <g clip-path="url(#p.0)">
        <path fill="#000000" fill-opacity="0.0" d="m0 0l1152.0 0l0 864.0l-1152.0 0z" fill-rule="evenodd"/>
        <path fill="#cfe2f3" d="m480.0 349.60513l0 0c0 -7.2188416 6.0635376 -13.070862 13.543304 -13.070862l0 0c3.591919 0 7.0367126 1.3771057 9.576569 3.8283691c2.539856 2.4512634 3.9667358 5.775879 3.9667358 9.242493l0 0c0 7.2188416 -6.0635376 13.070862 -13.543304 13.070862l0 0c-7.479767 0 -13.543304 -5.8520203 -13.543304 -13.070862z" fill-rule="evenodd"/>
        <path stroke="#000000" stroke-width="1.0" stroke-linejoin="round" stroke-linecap="butt" d="m480.0 349.60513l0 0c0 -7.2188416 6.0635376 -13.070862 13.543304 -13.070862l0 0c3.591919 0 7.0367126 1.3771057 9.576569 3.8283691c2.539856 2.4512634 3.9667358 5.775879 3.9667358 9.242493l0 0c0 7.2188416 -6.0635376 13.070862 -13.543304 13.070862l0 0c-7.479767 0 -13.543304 -5.8520203 -13.543304 -13.070862z" fill-rule="evenodd"/>
        <path fill="#cfe2f3" d="m480.0 401.87225l0 0c0 -7.2188416 6.0635376 -13.070862 13.543304 -13.070862l0 0c3.591919 0 7.0367126 1.3771057 9.576569 3.8283691c2.539856 2.4512634 3.9667358 5.775879 3.9667358 9.242493l0 0c0 7.2188416 -6.0635376 13.070862 -13.543304 13.070862l0 0c-7.479767 0 -13.543304 -5.8520203 -13.543304 -13.070862z" fill-rule="evenodd"/>
        <path stroke="#000000" stroke-width="1.0" stroke-linejoin="round" stroke-linecap="butt" d="m480.0 401.87225l0 0c0 -7.2188416 6.0635376 -13.070862 13.543304 -13.070862l0 0c3.591919 0 7.0367126 1.3771057 9.576569 3.8283691c2.539856 2.4512634 3.9667358 5.775879 3.9667358 9.242493l0 0c0 7.2188416 -6.0635376 13.070862 -13.543304 13.070862l0 0c-7.479767 0 -13.543304 -5.8520203 -13.543304 -13.070862z" fill-rule="evenodd"/>
        <path fill="#cfe2f3" d="m480.0 454.13937l0 0c0 -7.2188416 6.0635376 -13.070862 13.543304 -13.070862l0 0c3.591919 0 7.0367126 1.3771057 9.576569 3.8283691c2.539856 2.4512634 3.9667358 5.7759094 3.9667358 9.242493l0 0c0 7.2188416 -6.0635376 13.070892 -13.543304 13.070892l0 0c-7.479767 0 -13.543304 -5.852051 -13.543304 -13.070892z" fill-rule="evenodd"/>
        <path stroke="#000000" stroke-width="1.0" stroke-linejoin="round" stroke-linecap="butt" d="m480.0 454.13937l0 0c0 -7.2188416 6.0635376 -13.070862 13.543304 -13.070862l0 0c3.591919 0 7.0367126 1.3771057 9.576569 3.8283691c2.539856 2.4512634 3.9667358 5.7759094 3.9667358 9.242493l0 0c0 7.2188416 -6.0635376 13.070892 -13.543304 13.070892l0 0c-7.479767 0 -13.543304 -5.852051 -13.543304 -13.070892z" fill-rule="evenodd"/>
        <path fill="#cfe2f3" d="m628.91864 245.07086l0 0c0 -7.2188416 6.0635376 -13.070862 13.543335 -13.070862l0 0c3.591858 0 7.036682 1.3771057 9.576538 3.8283691c2.539856 2.4512634 3.9667358 5.775894 3.9667358 9.242493l0 0c0 7.2188416 -6.0635376 13.070862 -13.543274 13.070862l0 0c-7.4797974 0 -13.543335 -5.8520203 -13.543335 -13.070862z" fill-rule="evenodd"/>
        <path stroke="#000000" stroke-width="1.0" stroke-linejoin="round" stroke-linecap="butt" d="m628.91864 245.07086l0 0c0 -7.2188416 6.0635376 -13.070862 13.543335 -13.070862l0 0c3.591858 0 7.036682 1.3771057 9.576538 3.8283691c2.539856 2.4512634 3.9667358 5.775894 3.9667358 9.242493l0 0c0 7.2188416 -6.0635376 13.070862 -13.543274 13.070862l0 0c-7.4797974 0 -13.543335 -5.8520203 -13.543335 -13.070862z" fill-rule="evenodd"/>
        <path fill="#cfe2f3" d="m628.91864 297.33798l0 0c0 -7.218811 6.0635376 -13.070862 13.543335 -13.070862l0 0c3.591858 0 7.036682 1.3771057 9.576538 3.8283691c2.539856 2.4512634 3.9667358 5.7759094 3.9667358 9.242493l0 0c0 7.2188416 -6.0635376 13.070892 -13.543274 13.070892l0 0c-7.4797974 0 -13.543335 -5.852051 -13.543335 -13.070892z" fill-rule="evenodd"/>
        <path stroke="#000000" stroke-width="1.0" stroke-linejoin="round" stroke-linecap="butt" d="m628.91864 297.33798l0 0c0 -7.218811 6.0635376 -13.070862 13.543335 -13.070862l0 0c3.591858 0 7.036682 1.3771057 9.576538 3.8283691c2.539856 2.4512634 3.9667358 5.7759094 3.9667358 9.242493l0 0c0 7.2188416 -6.0635376 13.070892 -13.543274 13.070892l0 0c-7.4797974 0 -13.543335 -5.852051 -13.543335 -13.070892z" fill-rule="evenodd"/>
        <path fill="#cfe2f3" d="m628.91864 349.60513l0 0c0 -7.2188416 6.0635376 -13.070862 13.543335 -13.070862l0 0c3.591858 0 7.036682 1.3771057 9.576538 3.8283691c2.539856 2.4512634 3.9667358 5.775879 3.9667358 9.242493l0 0c0 7.2188416 -6.0635376 13.070862 -13.543274 13.070862l0 0c-7.4797974 0 -13.543335 -5.8520203 -13.543335 -13.070862z" fill-rule="evenodd"/>
        <path stroke="#000000" stroke-width="1.0" stroke-linejoin="round" stroke-linecap="butt" d="m628.91864 349.60513l0 0c0 -7.2188416 6.0635376 -13.070862 13.543335 -13.070862l0 0c3.591858 0 7.036682 1.3771057 9.576538 3.8283691c2.539856 2.4512634 3.9667358 5.775879 3.9667358 9.242493l0 0c0 7.2188416 -6.0635376 13.070862 -13.543274 13.070862l0 0c-7.4797974 0 -13.543335 -5.8520203 -13.543335 -13.070862z" fill-rule="evenodd"/>
        <path fill="#cfe2f3" d="m628.91864 401.87225l0 0c0 -7.2188416 6.0635376 -13.070862 13.543335 -13.070862l0 0c3.591858 0 7.036682 1.3771057 9.576538 3.8283691c2.539856 2.4512634 3.9667358 5.775879 3.9667358 9.242493l0 0c0 7.2188416 -6.0635376 13.070862 -13.543274 13.070862l0 0c-7.4797974 0 -13.543335 -5.8520203 -13.543335 -13.070862z" fill-rule="evenodd"/>
        <path stroke="#000000" stroke-width="1.0" stroke-linejoin="round" stroke-linecap="butt" d="m628.91864 401.87225l0 0c0 -7.2188416 6.0635376 -13.070862 13.543335 -13.070862l0 0c3.591858 0 7.036682 1.3771057 9.576538 3.8283691c2.539856 2.4512634 3.9667358 5.775879 3.9667358 9.242493l0 0c0 7.2188416 -6.0635376 13.070862 -13.543274 13.070862l0 0c-7.4797974 0 -13.543335 -5.8520203 -13.543335 -13.070862z" fill-rule="evenodd"/>
        <path fill="#cfe2f3" d="m628.91864 454.13937l0 0c0 -7.2188416 6.0635376 -13.070862 13.543335 -13.070862l0 0c3.591858 0 7.036682 1.3771057 9.576538 3.8283691c2.539856 2.4512634 3.9667358 5.7759094 3.9667358 9.242493l0 0c0 7.2188416 -6.0635376 13.070892 -13.543274 13.070892l0 0c-7.4797974 0 -13.543335 -5.852051 -13.543335 -13.070892z" fill-rule="evenodd"/>
        <path stroke="#000000" stroke-width="1.0" stroke-linejoin="round" stroke-linecap="butt" d="m628.91864 454.13937l0 0c0 -7.2188416 6.0635376 -13.070862 13.543335 -13.070862l0 0c3.591858 0 7.036682 1.3771057 9.576538 3.8283691c2.539856 2.4512634 3.9667358 5.7759094 3.9667358 9.242493l0 0c0 7.2188416 -6.0635376 13.070892 -13.543274 13.070892l0 0c-7.4797974 0 -13.543335 -5.852051 -13.543335 -13.070892z" fill-rule="evenodd"/>
        <path fill="#cfe2f3" d="m628.91864 506.40652l0 0c0 -7.2188416 6.0635376 -13.070862 13.543335 -13.070862l0 0c3.591858 0 7.036682 1.3771057 9.576538 3.8283691c2.539856 2.4512634 3.9667358 5.775879 3.9667358 9.242493l0 0c0 7.2188416 -6.0635376 13.070831 -13.543274 13.070831l0 0c-7.4797974 0 -13.543335 -5.8519897 -13.543335 -13.070831z" fill-rule="evenodd"/>
        <path stroke="#000000" stroke-width="1.0" stroke-linejoin="round" stroke-linecap="butt" d="m628.91864 506.40652l0 0c0 -7.2188416 6.0635376 -13.070862 13.543335 -13.070862l0 0c3.591858 0 7.036682 1.3771057 9.576538 3.8283691c2.539856 2.4512634 3.9667358 5.775879 3.9667358 9.242493l0 0c0 7.2188416 -6.0635376 13.070831 -13.543274 13.070831l0 0c-7.4797974 0 -13.543335 -5.8519897 -13.543335 -13.070831z" fill-rule="evenodd"/>
        <path fill="#cfe2f3" d="m628.91864 558.67365l0 0c0 -7.218811 6.0635376 -13.070862 13.543335 -13.070862l0 0c3.591858 0 7.036682 1.3770752 9.576538 3.8283691c2.539856 2.451233 3.9667358 5.775879 3.9667358 9.242493l0 0c0 7.218872 -6.0635376 13.070862 -13.543274 13.070862l0 0c-7.4797974 0 -13.543335 -5.8519897 -13.543335 -13.070862z" fill-rule="evenodd"/>
        <path stroke="#000000" stroke-width="1.0" stroke-linejoin="round" stroke-linecap="butt" d="m628.91864 558.67365l0 0c0 -7.218811 6.0635376 -13.070862 13.543335 -13.070862l0 0c3.591858 0 7.036682 1.3770752 9.576538 3.8283691c2.539856 2.451233 3.9667358 5.775879 3.9667358 9.242493l0 0c0 7.218872 -6.0635376 13.070862 -13.543274 13.070862l0 0c-7.4797974 0 -13.543335 -5.8519897 -13.543335 -13.070862z" fill-rule="evenodd"/>
        <path fill="#000000" fill-opacity="0.0" d="m507.09186 349.6378l121.82678 -104.566925" fill-rule="evenodd"/>
        <path stroke="#000000" stroke-width="1.0" stroke-linejoin="round" stroke-linecap="butt" d="m507.09186 349.6378l117.273926 -100.65907" fill-rule="evenodd"/>
        <path fill="#000000" stroke="#000000" stroke-width="1.0" stroke-linecap="butt" d="m625.4415 250.23207l2.3677979 -4.2090607l-4.519348 1.7023468z" fill-rule="evenodd"/>
        <path fill="#000000" fill-opacity="0.0" d="m507.09186 349.58997l121.82678 -52.251984" fill-rule="evenodd"/>
        <path stroke="#000000" stroke-width="1.0" stroke-linejoin="round" stroke-linecap="butt" d="m507.09186 349.58997l116.31256 -49.886932" fill-rule="evenodd"/>
        <path fill="#000000" stroke="#000000" stroke-width="1.0" stroke-linecap="butt" d="m624.0555 301.22104l3.5195923 -3.3067932l-4.8217163 0.270813z" fill-rule="evenodd"/>
        <path fill="#000000" fill-opacity="0.0" d="m507.0866 349.60513l121.82678 0" fill-rule="evenodd"/>
        <path stroke="#000000" stroke-width="1.0" stroke-linejoin="round" stroke-linecap="butt" d="m507.0866 349.6051l115.82678 0" fill-rule="evenodd"/>
        <path fill="#000000" stroke="#000000" stroke-width="1.0" stroke-linecap="butt" d="m622.9134 351.25684l4.538086 -1.6517334l-4.538086 -1.6517334z" fill-rule="evenodd"/>
        <path fill="#000000" fill-opacity="0.0" d="m507.0866 349.60513l121.82678 52.251953" fill-rule="evenodd"/>
        <path stroke="#000000" stroke-width="1.0" stroke-linejoin="round" stroke-linecap="butt" d="m507.0866 349.6051l116.31256 49.8869" fill-rule="evenodd"/>
        <path fill="#000000" stroke="#000000" stroke-width="1.0" stroke-linecap="butt" d="m622.7481 401.01l4.8217163 0.270813l-3.5195923 -3.3067932z" fill-rule="evenodd"/>
        <path fill="#000000" fill-opacity="0.0" d="m507.0866 349.60513l121.82678 104.53543" fill-rule="evenodd"/>
        <path stroke="#000000" stroke-width="1.0" stroke-linejoin="round" stroke-linecap="butt" d="m507.0866 349.6051l117.273315 100.628296" fill-rule="evenodd"/>
        <path fill="#000000" stroke="#000000" stroke-width="1.0" stroke-linecap="butt" d="m623.2843 451.48688l4.5196533 1.7016907l-2.3684082 -4.2087097z" fill-rule="evenodd"/>
        <path fill="#000000" fill-opacity="0.0" d="m507.09186 349.58762l121.82678 156.81891" fill-rule="evenodd"/>
        <path stroke="#000000" stroke-width="1.0" stroke-linejoin="round" stroke-linecap="butt" d="m507.09186 349.58765l118.14581 152.08066" fill-rule="evenodd"/>
        <path fill="#000000" stroke="#000000" stroke-width="1.0" stroke-linecap="butt" d="m623.9333 502.68164l4.088501 2.5704346l-1.4797363 -4.5970764z" fill-rule="evenodd"/>
        <path fill="#000000" fill-opacity="0.0" d="m507.0866 349.60513l121.82678 209.07083" fill-rule="evenodd"/>
        <path stroke="#000000" stroke-width="1.0" stroke-linejoin="round" stroke-linecap="butt" d="m507.0866 349.6051l118.80597 203.88678" fill-rule="evenodd"/>
        <path fill="#000000" stroke="#000000" stroke-width="1.0" stroke-linecap="butt" d="m624.46545 554.3235l3.711914 3.0893555l-0.857666 -4.7525635z" fill-rule="evenodd"/>
        <path fill="#000000" fill-opacity="0.0" d="m507.09186 401.88977l121.82678 -156.81891" fill-rule="evenodd"/>
        <path stroke="#000000" stroke-width="1.0" stroke-linejoin="round" stroke-linecap="butt" d="m507.09186 401.88977l118.14581 -152.08069" fill-rule="evenodd"/>
        <path fill="#000000" stroke="#000000" stroke-width="1.0" stroke-linecap="butt" d="m626.54205 250.8224l1.4797363 -4.5970764l-4.088501 2.5704346z" fill-rule="evenodd"/>
        <path fill="#000000" fill-opacity="0.0" d="m507.09186 401.90494l121.82678 -104.566956" fill-rule="evenodd"/>
        <path stroke="#000000" stroke-width="1.0" stroke-linejoin="round" stroke-linecap="butt" d="m507.09186 401.90494l117.273926 -100.65909" fill-rule="evenodd"/>
        <path fill="#000000" stroke="#000000" stroke-width="1.0" stroke-linecap="butt" d="m625.4415 302.4992l2.3677979 -4.209076l-4.519348 1.7023621z" fill-rule="evenodd"/>
        <path fill="#000000" fill-opacity="0.0" d="m507.0866 401.87225l121.82678 -52.251953" fill-rule="evenodd"/>
        <path stroke="#000000" stroke-width="1.0" stroke-linejoin="round" stroke-linecap="butt" d="m507.0866 401.87225l116.31256 -49.8869" fill-rule="evenodd"/>
        <path fill="#000000" stroke="#000000" stroke-width="1.0" stroke-linecap="butt" d="m624.05023 353.50336l3.5195923 -3.3068237l-4.8217163 0.270813z" fill-rule="evenodd"/>
        <path fill="#000000" fill-opacity="0.0" d="m507.0866 401.87225l121.82678 0" fill-rule="evenodd"/>
        <path stroke="#000000" stroke-width="1.0" stroke-linejoin="round" stroke-linecap="butt" d="m507.0866 401.87225l115.82678 0" fill-rule="evenodd"/>
        <path fill="#000000" stroke="#000000" stroke-width="1.0" stroke-linecap="butt" d="m622.9134 403.524l4.538086 -1.6517334l-4.538086 -1.6517334z" fill-rule="evenodd"/>
        <path fill="#000000" fill-opacity="0.0" d="m507.0866 401.87225l121.82678 52.251984" fill-rule="evenodd"/>
        <path stroke="#000000" stroke-width="1.0" stroke-linejoin="round" stroke-linecap="butt" d="m507.0866 401.87225l116.31256 49.8869" fill-rule="evenodd"/>
        <path fill="#000000" stroke="#000000" stroke-width="1.0" stroke-linecap="butt" d="m622.7481 453.27716l4.8217163 0.270813l-3.5195923 -3.3068237z" fill-rule="evenodd"/>
        <path fill="#000000" fill-opacity="0.0" d="m507.0866 401.87225l121.82678 104.53543" fill-rule="evenodd"/>
        <path stroke="#000000" stroke-width="1.0" stroke-linejoin="round" stroke-linecap="butt" d="m507.0866 401.87225l117.273315 100.628265" fill-rule="evenodd"/>
        <path fill="#000000" stroke="#000000" stroke-width="1.0" stroke-linecap="butt" d="m623.2843 503.75403l4.5196533 1.7016602l-2.3684082 -4.208679z" fill-rule="evenodd"/>
        <path fill="#000000" fill-opacity="0.0" d="m507.0866 401.87225l121.82678 156.78741" fill-rule="evenodd"/>
        <path stroke="#000000" stroke-width="1.0" stroke-linejoin="round" stroke-linecap="butt" d="m507.0866 401.87225l118.145386 152.04956" fill-rule="evenodd"/>
        <path fill="#000000" stroke="#000000" stroke-width="1.0" stroke-linecap="butt" d="m623.92773 554.93524l4.088684 2.5700073l-1.4801636 -4.596924z" fill-rule="evenodd"/>
        <path fill="#000000" fill-opacity="0.0" d="m507.0866 454.13937l121.82678 -209.07085" fill-rule="evenodd"/>
        <path stroke="#000000" stroke-width="1.0" stroke-linejoin="round" stroke-linecap="butt" d="m507.0866 454.1394l118.80597 -203.88678" fill-rule="evenodd"/>
        <path fill="#000000" stroke="#000000" stroke-width="1.0" stroke-linecap="butt" d="m627.3197 251.08421l0.857666 -4.7525787l-3.711914 3.089386z" fill-rule="evenodd"/>
        <path fill="#000000" fill-opacity="0.0" d="m507.0866 454.13937l121.82678 -156.78738" fill-rule="evenodd"/>
        <path stroke="#000000" stroke-width="1.0" stroke-linejoin="round" stroke-linecap="butt" d="m507.0866 454.1394l118.145386 -152.04956" fill-rule="evenodd"/>
        <path fill="#000000" stroke="#000000" stroke-width="1.0" stroke-linecap="butt" d="m626.53625 303.1033l1.4801636 -4.596924l-4.088684 2.5700073z" fill-rule="evenodd"/>
        <path fill="#000000" fill-opacity="0.0" d="m507.0866 454.13937l121.82678 -104.53543" fill-rule="evenodd"/>
        <path stroke="#000000" stroke-width="1.0" stroke-linejoin="round" stroke-linecap="butt" d="m507.0866 454.1394l117.273315 -100.628296" fill-rule="evenodd"/>
        <path fill="#000000" stroke="#000000" stroke-width="1.0" stroke-linecap="butt" d="m625.43555 354.76465l2.3684082 -4.2087097l-4.5196533 1.7016907z" fill-rule="evenodd"/>
        <path fill="#000000" fill-opacity="0.0" d="m507.09186 454.12424l121.82678 -52.251984" fill-rule="evenodd"/>
        <path stroke="#000000" stroke-width="1.0" stroke-linejoin="round" stroke-linecap="butt" d="m507.09186 454.1242l116.31256 -49.88687" fill-rule="evenodd"/>
        <path fill="#000000" stroke="#000000" stroke-width="1.0" stroke-linecap="butt" d="m624.0555 405.7553l3.5195923 -3.3068237l-4.8217163 0.2708435z" fill-rule="evenodd"/>
        <path fill="#000000" fill-opacity="0.0" d="m507.0866 454.13937l121.82678 0" fill-rule="evenodd"/>
        <path stroke="#000000" stroke-width="1.0" stroke-linejoin="round" stroke-linecap="butt" d="m507.0866 454.1394l115.82678 0" fill-rule="evenodd"/>
        <path fill="#000000" stroke="#000000" stroke-width="1.0" stroke-linecap="butt" d="m622.9134 455.79114l4.538086 -1.6517334l-4.538086 -1.6517334z" fill-rule="evenodd"/>
        <path fill="#000000" fill-opacity="0.0" d="m507.0866 454.13937l121.82678 52.251984" fill-rule="evenodd"/>
        <path stroke="#000000" stroke-width="1.0" stroke-linejoin="round" stroke-linecap="butt" d="m507.0866 454.1394l116.31256 49.88687" fill-rule="evenodd"/>
        <path fill="#000000" stroke="#000000" stroke-width="1.0" stroke-linecap="butt" d="m622.7481 505.5443l4.8217163 0.270813l-3.5195923 -3.3068237z" fill-rule="evenodd"/>
        <path fill="#000000" fill-opacity="0.0" d="m507.0866 454.13937l121.82678 104.53543" fill-rule="evenodd"/>
        <path stroke="#000000" stroke-width="1.0" stroke-linejoin="round" stroke-linecap="butt" d="m507.0866 454.1394l117.273315 100.628296" fill-rule="evenodd"/>
        <path fill="#000000" stroke="#000000" stroke-width="1.0" stroke-linecap="butt" d="m623.2843 556.0212l4.5196533 1.7016602l-2.3684082 -4.208679z" fill-rule="evenodd"/>
        <path fill="#000000" fill-opacity="0.0" d="m312.0 379.68503l160.0 0l0 100.31497l-160.0 0z" fill-rule="evenodd"/>
        <path fill="#000000" d="m359.39844 419.40503l0 -22.90625l3.03125 0l0 22.90625l-3.03125 0zm8.015625 0l0 -16.59375l2.53125 0l0 2.359375q1.828125 -2.734375 5.28125 -2.734375q1.5 0 2.75 0.546875q1.265625 0.53125 1.890625 1.40625q0.625 0.875 0.875 2.078125q0.15625 0.78125 0.15625 2.734375l0 10.203125l-2.8125 0l0 -10.09375q0 -1.71875 -0.328125 -2.5625q-0.328125 -0.859375 -1.171875 -1.359375q-0.828125 -0.515625 -1.953125 -0.515625q-1.796875 0 -3.109375 1.140625q-1.296875 1.140625 -1.296875 4.328125l0 9.0625l-2.8125 0zm17.796875 6.359375l0 -22.953125l2.5625 0l0 2.15625q0.90625 -1.265625 2.046875 -1.890625q1.140625 -0.640625 2.765625 -0.640625q2.125 0 3.75 1.09375q1.625 1.09375 2.453125 3.09375q0.828125 1.984375 0.828125 4.359375q0 2.546875 -0.921875 4.59375q-0.90625 2.03125 -2.65625 3.125q-1.734375 1.078125 -3.65625 1.078125q-1.40625 0 -2.53125 -0.59375q-1.109375 -0.59375 -1.828125 -1.5l0 8.078125l-2.8125 0zm2.546875 -14.5625q0 3.203125 1.296875 4.734375q1.296875 1.53125 3.140625 1.53125q1.875 0 3.203125 -1.578125q1.34375 -1.59375 1.34375 -4.921875q0 -3.171875 -1.3125 -4.75q-1.296875 -1.578125 -3.109375 -1.578125q-1.796875 0 -3.1875 1.6875q-1.375 1.671875 -1.375 4.875zm26.125 8.203125l0 -2.4375q-1.9375 2.8125 -5.265625 2.8125q-1.46875 0 -2.75 -0.5625q-1.265625 -0.5625 -1.890625 -1.40625q-0.609375 -0.859375 -0.859375 -2.09375q-0.171875 -0.828125 -0.171875 -2.625l0 -10.28125l2.8125 0l0 9.203125q0 2.203125 0.171875 2.96875q0.265625 1.109375 1.125 1.75q0.859375 0.625 2.125 0.625q1.265625 0 2.375 -0.640625q1.109375 -0.65625 1.5625 -1.765625q0.46875 -1.125 0.46875 -3.25l0 -8.890625l2.8125 0l0 16.59375l-2.515625 0zm13.0625 -2.515625l0.40625 2.484375q-1.1875 0.25 -2.125 0.25q-1.53125 0 -2.375 -0.484375q-0.84375 -0.484375 -1.1875 -1.265625q-0.34375 -0.796875 -0.34375 -3.328125l0 -9.546875l-2.0625 0l0 -2.1875l2.0625 0l0 -4.109375l2.796875 -1.6875l0 5.796875l2.828125 0l0 2.1875l-2.828125 0l0 9.703125q0 1.203125 0.140625 1.546875q0.15625 0.34375 0.484375 0.546875q0.34375 0.203125 0.96875 0.203125q0.46875 0 1.234375 -0.109375z" fill-rule="nonzero"/>
        <path fill="#000000" d="m333.96094 457.40503l0 -22.90625l3.109375 0l12.03125 17.984375l0 -17.984375l2.90625 0l0 22.90625l-3.109375 0l-12.03125 -18.0l0 18.0l-2.90625 0zm34.140625 -5.34375l2.90625 0.359375q-0.6875 2.546875 -2.546875 3.953125q-1.859375 1.40625 -4.75 1.40625q-3.640625 0 -5.78125 -2.234375q-2.125 -2.25 -2.125 -6.296875q0 -4.1875 2.15625 -6.5q2.15625 -2.3125 5.59375 -2.3125q3.328125 0 5.4375 2.265625q2.109375 2.265625 2.109375 6.375q0 0.25 -0.015625 0.75l-12.375 0q0.15625 2.734375 1.546875 4.1875q1.390625 1.453125 3.46875 1.453125q1.546875 0 2.640625 -0.8125q1.09375 -0.8125 1.734375 -2.59375zm-9.234375 -4.546875l9.265625 0q-0.1875 -2.09375 -1.0625 -3.140625q-1.34375 -1.625 -3.484375 -1.625q-1.9375 0 -3.265625 1.296875q-1.3125 1.296875 -1.453125 3.46875zm26.546875 9.890625l0 -2.4375q-1.9375 2.8125 -5.265625 2.8125q-1.46875 0 -2.75 -0.5625q-1.265625 -0.5625 -1.890625 -1.40625q-0.609375 -0.859375 -0.859375 -2.09375q-0.171875 -0.828125 -0.171875 -2.625l0 -10.28125l2.8125 0l0 9.203125q0 2.203125 0.171875 2.96875q0.265625 1.109375 1.125 1.75q0.859375 0.625 2.125 0.625q1.265625 0 2.375 -0.640625q1.109375 -0.65625 1.5625 -1.765625q0.46875 -1.125 0.46875 -3.25l0 -8.890625l2.8125 0l0 16.59375l-2.515625 0zm6.890625 0l0 -16.59375l2.53125 0l0 2.515625q0.96875 -1.765625 1.78125 -2.328125q0.828125 -0.5625 1.8125 -0.5625q1.421875 0 2.890625 0.90625l-0.96875 2.609375q-1.03125 -0.609375 -2.0625 -0.609375q-0.921875 0 -1.65625 0.5625q-0.734375 0.546875 -1.046875 1.53125q-0.46875 1.5 -0.46875 3.28125l0 8.6875l-2.8125 0zm9.640625 -8.296875q0 -4.609375 2.5625 -6.828125q2.140625 -1.84375 5.21875 -1.84375q3.421875 0 5.59375 2.25q2.171875 2.234375 2.171875 6.1875q0 3.203125 -0.96875 5.046875q-0.953125 1.828125 -2.796875 2.84375q-1.828125 1.015625 -4.0 1.015625q-3.484375 0 -5.640625 -2.234375q-2.140625 -2.234375 -2.140625 -6.4375zm2.890625 0q0 3.1875 1.390625 4.78125q1.390625 1.578125 3.5 1.578125q2.09375 0 3.484375 -1.59375q1.390625 -1.59375 1.390625 -4.859375q0 -3.078125 -1.40625 -4.65625q-1.390625 -1.59375 -3.46875 -1.59375q-2.109375 0 -3.5 1.578125q-1.390625 1.578125 -1.390625 4.765625zm15.953125 8.296875l0 -16.59375l2.53125 0l0 2.359375q1.828125 -2.734375 5.28125 -2.734375q1.5 0 2.75 0.546875q1.265625 0.53125 1.890625 1.40625q0.625 0.875 0.875 2.078125q0.15625 0.78125 0.15625 2.734375l0 10.203125l-2.8125 0l0 -10.09375q0 -1.71875 -0.328125 -2.5625q-0.328125 -0.859375 -1.171875 -1.359375q-0.828125 -0.515625 -1.953125 -0.515625q-1.796875 0 -3.109375 1.140625q-1.296875 1.140625 -1.296875 4.328125l0 9.0625l-2.8125 0zm16.671875 -4.953125l2.78125 -0.4375q0.234375 1.671875 1.296875 2.5625q1.078125 0.890625 3.0 0.890625q1.9375 0 2.875 -0.78125q0.9375 -0.796875 0.9375 -1.859375q0 -0.953125 -0.828125 -1.5q-0.578125 -0.375 -2.875 -0.953125q-3.09375 -0.78125 -4.296875 -1.34375q-1.1875 -0.578125 -1.8125 -1.578125q-0.609375 -1.015625 -0.609375 -2.234375q0 -1.109375 0.5 -2.046875q0.515625 -0.953125 1.390625 -1.578125q0.65625 -0.484375 1.78125 -0.8125q1.140625 -0.34375 2.4375 -0.34375q1.953125 0 3.421875 0.5625q1.484375 0.5625 2.1875 1.53125q0.703125 0.953125 0.96875 2.5625l-2.75 0.375q-0.1875 -1.28125 -1.09375 -2.0q-0.890625 -0.71875 -2.53125 -0.71875q-1.9375 0 -2.765625 0.640625q-0.828125 0.640625 -0.828125 1.5q0 0.546875 0.34375 0.984375q0.34375 0.453125 1.078125 0.75q0.421875 0.15625 2.484375 0.71875q2.984375 0.796875 4.15625 1.3125q1.1875 0.5 1.859375 1.46875q0.671875 0.96875 0.671875 2.40625q0 1.40625 -0.828125 2.65625q-0.8125 1.234375 -2.359375 1.921875q-1.546875 0.671875 -3.5 0.671875q-3.234375 0 -4.9375 -1.34375q-1.6875 -1.34375 -2.15625 -3.984375z" fill-rule="nonzero"/>
        <path fill="#000000" fill-opacity="0.0" d="m656.0 384.0l184.0 0l0 88.0l-184.0 0z" fill-rule="evenodd"/>
        <path fill="#000000" d="m701.5156 412.56375q0 -5.703125 3.0625 -8.921875q3.0625 -3.234375 7.90625 -3.234375q3.171875 0 5.71875 1.515625q2.546875 1.515625 3.875 4.234375q1.34375 2.703125 1.34375 6.140625q0 3.484375 -1.40625 6.234375q-1.40625 2.75 -3.984375 4.171875q-2.578125 1.40625 -5.5625 1.40625q-3.234375 0 -5.78125 -1.5625q-2.546875 -1.5625 -3.859375 -4.265625q-1.3125 -2.703125 -1.3125 -5.71875zm3.125 0.046875q0 4.140625 2.21875 6.53125q2.234375 2.375 5.59375 2.375q3.421875 0 5.625 -2.40625q2.21875 -2.40625 2.21875 -6.828125q0 -2.796875 -0.953125 -4.875q-0.9375 -2.09375 -2.765625 -3.234375q-1.8125 -1.15625 -4.078125 -1.15625q-3.21875 0 -5.546875 2.21875q-2.3125 2.203125 -2.3125 7.375zm33.203125 11.109375l0 -2.4375q-1.9375 2.8125 -5.265625 2.8125q-1.46875 0 -2.75 -0.5625q-1.265625 -0.5625 -1.890625 -1.40625q-0.609375 -0.859375 -0.859375 -2.09375q-0.171875 -0.828125 -0.171875 -2.625l0 -10.28125l2.8125 0l0 9.203125q0 2.203125 0.171875 2.96875q0.265625 1.109375 1.125 1.75q0.859375 0.625 2.125 0.625q1.265625 0 2.375 -0.640625q1.109375 -0.65625 1.5625 -1.765625q0.46875 -1.125 0.46875 -3.25l0 -8.890625l2.8125 0l0 16.59375l-2.515625 0zm13.0625 -2.515625l0.40625 2.484375q-1.1875 0.25 -2.125 0.25q-1.53125 0 -2.375 -0.484375q-0.84375 -0.484375 -1.1875 -1.265625q-0.34375 -0.796875 -0.34375 -3.328125l0 -9.546875l-2.0625 0l0 -2.1875l2.0625 0l0 -4.109375l2.796875 -1.6875l0 5.796875l2.828125 0l0 2.1875l-2.828125 0l0 9.703125q0 1.203125 0.140625 1.546875q0.15625 0.34375 0.484375 0.546875q0.34375 0.203125 0.96875 0.203125q0.46875 0 1.234375 -0.109375zm2.75 8.875l0 -22.953125l2.5625 0l0 2.15625q0.90625 -1.265625 2.046875 -1.890625q1.140625 -0.640625 2.765625 -0.640625q2.125 0 3.75 1.09375q1.625 1.09375 2.453125 3.09375q0.828125 1.984375 0.828125 4.359375q0 2.546875 -0.921875 4.59375q-0.90625 2.03125 -2.65625 3.125q-1.734375 1.078125 -3.65625 1.078125q-1.40625 0 -2.53125 -0.59375q-1.109375 -0.59375 -1.828125 -1.5l0 8.078125l-2.8125 0zm2.546875 -14.5625q0 3.203125 1.296875 4.734375q1.296875 1.53125 3.140625 1.53125q1.875 0 3.203125 -1.578125q1.34375 -1.59375 1.34375 -4.921875q0 -3.171875 -1.3125 -4.75q-1.296875 -1.578125 -3.109375 -1.578125q-1.796875 0 -3.1875 1.6875q-1.375 1.671875 -1.375 4.875zm26.125 8.203125l0 -2.4375q-1.9375 2.8125 -5.265625 2.8125q-1.46875 0 -2.75 -0.5625q-1.265625 -0.5625 -1.890625 -1.40625q-0.609375 -0.859375 -0.859375 -2.09375q-0.171875 -0.828125 -0.171875 -2.625l0 -10.28125l2.8125 0l0 9.203125q0 2.203125 0.171875 2.96875q0.265625 1.109375 1.125 1.75q0.859375 0.625 2.125 0.625q1.265625 0 2.375 -0.640625q1.109375 -0.65625 1.5625 -1.765625q0.46875 -1.125 0.46875 -3.25l0 -8.890625l2.8125 0l0 16.59375l-2.515625 0zm13.0625 -2.515625l0.40625 2.484375q-1.1875 0.25 -2.125 0.25q-1.53125 0 -2.375 -0.484375q-0.84375 -0.484375 -1.1875 -1.265625q-0.34375 -0.796875 -0.34375 -3.328125l0 -9.546875l-2.0625 0l0 -2.1875l2.0625 0l0 -4.109375l2.796875 -1.6875l0 5.796875l2.828125 0l0 2.1875l-2.828125 0l0 9.703125q0 1.203125 0.140625 1.546875q0.15625 0.34375 0.484375 0.546875q0.34375 0.203125 0.96875 0.203125q0.46875 0 1.234375 -0.109375z" fill-rule="nonzero"/>
        <path fill="#000000" d="m689.96094 461.72l0 -22.90625l3.109375 0l12.03125 17.984375l0 -17.984375l2.90625 0l0 22.90625l-3.109375 0l-12.03125 -18.0l0 18.0l-2.90625 0zm34.140625 -5.34375l2.90625 0.359375q-0.6875 2.546875 -2.546875 3.953125q-1.859375 1.40625 -4.75 1.40625q-3.640625 0 -5.78125 -2.234375q-2.125 -2.25 -2.125 -6.296875q0 -4.1875 2.15625 -6.5q2.15625 -2.3125 5.59375 -2.3125q3.328125 0 5.4375 2.265625q2.109375 2.265625 2.109375 6.375q0 0.25 -0.015625 0.75l-12.375 0q0.15625 2.734375 1.546875 4.1875q1.390625 1.453125 3.46875 1.453125q1.546875 0 2.640625 -0.8125q1.09375 -0.8125 1.734375 -2.59375zm-9.234375 -4.546875l9.265625 0q-0.1875 -2.09375 -1.0625 -3.140625q-1.34375 -1.625 -3.484375 -1.625q-1.9375 0 -3.265625 1.296875q-1.3125 1.296875 -1.453125 3.46875zm26.546875 9.890625l0 -2.4375q-1.9375 2.8125 -5.265625 2.8125q-1.46875 0 -2.75 -0.5625q-1.265625 -0.5625 -1.890625 -1.40625q-0.609375 -0.859375 -0.859375 -2.09375q-0.171875 -0.828125 -0.171875 -2.625l0 -10.28125l2.8125 0l0 9.203125q0 2.203125 0.171875 2.96875q0.265625 1.109375 1.125 1.75q0.859375 0.625 2.125 0.625q1.265625 0 2.375 -0.640625q1.109375 -0.65625 1.5625 -1.765625q0.46875 -1.125 0.46875 -3.25l0 -8.890625l2.8125 0l0 16.59375l-2.515625 0zm6.890625 0l0 -16.59375l2.53125 0l0 2.515625q0.96875 -1.765625 1.78125 -2.328125q0.828125 -0.5625 1.8125 -0.5625q1.421875 0 2.890625 0.90625l-0.96875 2.609375q-1.03125 -0.609375 -2.0625 -0.609375q-0.921875 0 -1.65625 0.5625q-0.734375 0.546875 -1.046875 1.53125q-0.46875 1.5 -0.46875 3.28125l0 8.6875l-2.8125 0zm9.640625 -8.296875q0 -4.609375 2.5625 -6.828125q2.140625 -1.84375 5.21875 -1.84375q3.421875 0 5.59375 2.25q2.171875 2.234375 2.171875 6.1875q0 3.203125 -0.96875 5.046875q-0.953125 1.828125 -2.796875 2.84375q-1.828125 1.015625 -4.0 1.015625q-3.484375 0 -5.640625 -2.234375q-2.140625 -2.234375 -2.140625 -6.4375zm2.890625 0q0 3.1875 1.390625 4.78125q1.390625 1.578125 3.5 1.578125q2.09375 0 3.484375 -1.59375q1.390625 -1.59375 1.390625 -4.859375q0 -3.078125 -1.40625 -4.65625q-1.390625 -1.59375 -3.46875 -1.59375q-2.109375 0 -3.5 1.578125q-1.390625 1.578125 -1.390625 4.765625zm15.953125 8.296875l0 -16.59375l2.53125 0l0 2.359375q1.828125 -2.734375 5.28125 -2.734375q1.5 0 2.75 0.546875q1.265625 0.53125 1.890625 1.40625q0.625 0.875 0.875 2.078125q0.15625 0.78125 0.15625 2.734375l0 10.203125l-2.8125 0l0 -10.09375q0 -1.71875 -0.328125 -2.5625q-0.328125 -0.859375 -1.171875 -1.359375q-0.828125 -0.515625 -1.953125 -0.515625q-1.796875 0 -3.109375 1.140625q-1.296875 1.140625 -1.296875 4.328125l0 9.0625l-2.8125 0zm16.671875 -4.953125l2.78125 -0.4375q0.234375 1.671875 1.296875 2.5625q1.078125 0.890625 3.0 0.890625q1.9375 0 2.875 -0.78125q0.9375 -0.796875 0.9375 -1.859375q0 -0.953125 -0.828125 -1.5q-0.578125 -0.375 -2.875 -0.953125q-3.09375 -0.78125 -4.296875 -1.34375q-1.1875 -0.578125 -1.8125 -1.578125q-0.609375 -1.015625 -0.609375 -2.234375q0 -1.109375 0.5 -2.046875q0.515625 -0.953125 1.390625 -1.578125q0.65625 -0.484375 1.78125 -0.8125q1.140625 -0.34375 2.4375 -0.34375q1.953125 0 3.421875 0.5625q1.484375 0.5625 2.1875 1.53125q0.703125 0.953125 0.96875 2.5625l-2.75 0.375q-0.1875 -1.28125 -1.09375 -2.0q-0.890625 -0.71875 -2.53125 -0.71875q-1.9375 0 -2.765625 0.640625q-0.828125 0.640625 -0.828125 1.5q0 0.546875 0.34375 0.984375q0.34375 0.453125 1.078125 0.75q0.421875 0.15625 2.484375 0.71875q2.984375 0.796875 4.15625 1.3125q1.1875 0.5 1.859375 1.46875q0.671875 0.96875 0.671875 2.40625q0 1.40625 -0.828125 2.65625q-0.8125 1.234375 -2.359375 1.921875q-1.546875 0.671875 -3.5 0.671875q-3.234375 0 -4.9375 -1.34375q-1.6875 -1.34375 -2.15625 -3.984375z" fill-rule="nonzero"/>
        <path fill="#cfe2f3" d="m480.0 506.40652l0 0c0 -7.2188416 6.0635376 -13.070862 13.543304 -13.070862l0 0c3.591919 0 7.0367126 1.3771057 9.576569 3.8283691c2.539856 2.4512634 3.9667358 5.775879 3.9667358 9.242493l0 0c0 7.2188416 -6.0635376 13.070831 -13.543304 13.070831l0 0c-7.479767 0 -13.543304 -5.8519897 -13.543304 -13.070831z" fill-rule="evenodd"/>
        <path stroke="#000000" stroke-width="1.0" stroke-linejoin="round" stroke-linecap="butt" d="m480.0 506.40652l0 0c0 -7.2188416 6.0635376 -13.070862 13.543304 -13.070862l0 0c3.591919 0 7.0367126 1.3771057 9.576569 3.8283691c2.539856 2.4512634 3.9667358 5.775879 3.9667358 9.242493l0 0c0 7.2188416 -6.0635376 13.070831 -13.543304 13.070831l0 0c-7.479767 0 -13.543304 -5.8519897 -13.543304 -13.070831z" fill-rule="evenodd"/>
        <path fill="#cfe2f3" d="m628.91864 610.9408l0 0c0 -7.218872 6.0635376 -13.070862 13.543335 -13.070862l0 0c3.591858 0 7.036682 1.3770752 9.576538 3.8283691c2.539856 2.451233 3.9667358 5.775879 3.9667358 9.242493l0 0c0 7.218811 -6.0635376 13.070862 -13.543274 13.070862l0 0c-7.4797974 0 -13.543335 -5.852051 -13.543335 -13.070862z" fill-rule="evenodd"/>
        <path stroke="#000000" stroke-width="1.0" stroke-linejoin="round" stroke-linecap="butt" d="m628.91864 610.9408l0 0c0 -7.218872 6.0635376 -13.070862 13.543335 -13.070862l0 0c3.591858 0 7.036682 1.3770752 9.576538 3.8283691c2.539856 2.451233 3.9667358 5.775879 3.9667358 9.242493l0 0c0 7.218811 -6.0635376 13.070862 -13.543274 13.070862l0 0c-7.4797974 0 -13.543335 -5.852051 -13.543335 -13.070862z" fill-rule="evenodd"/>
        <path fill="#000000" fill-opacity="0.0" d="m507.0866 506.40652l121.82678 -261.32285" fill-rule="evenodd"/>
        <path stroke="#000000" stroke-width="1.0" stroke-linejoin="round" stroke-linecap="butt" d="m507.0866 506.40652l119.291565 -255.88475" fill-rule="evenodd"/>
        <path fill="#000000" stroke="#000000" stroke-width="1.0" stroke-linecap="butt" d="m627.87524 251.21968l0.42041016 -4.8110046l-3.4144897 3.4151764z" fill-rule="evenodd"/>
        <path fill="#000000" fill-opacity="0.0" d="m507.0866 506.40652l121.82678 -209.07086" fill-rule="evenodd"/>
        <path stroke="#000000" stroke-width="1.0" stroke-linejoin="round" stroke-linecap="butt" d="m507.0866 506.40652l118.80597 -203.88678" fill-rule="evenodd"/>
        <path fill="#000000" stroke="#000000" stroke-width="1.0" stroke-linecap="butt" d="m627.3197 303.35132l0.857666 -4.7525635l-3.711914 3.089386z" fill-rule="evenodd"/>
        <path fill="#000000" fill-opacity="0.0" d="m507.0866 506.40652l121.82678 -156.78741" fill-rule="evenodd"/>
        <path stroke="#000000" stroke-width="1.0" stroke-linejoin="round" stroke-linecap="butt" d="m507.0866 506.40652l118.145386 -152.04953" fill-rule="evenodd"/>
        <path fill="#000000" stroke="#000000" stroke-width="1.0" stroke-linecap="butt" d="m626.53625 355.37045l1.4801636 -4.596924l-4.088684 2.5700073z" fill-rule="evenodd"/>
        <path fill="#000000" fill-opacity="0.0" d="m507.0866 506.40652l121.82678 -104.53543" fill-rule="evenodd"/>
        <path stroke="#000000" stroke-width="1.0" stroke-linejoin="round" stroke-linecap="butt" d="m507.0866 506.40652l117.273315 -100.628265" fill-rule="evenodd"/>
        <path fill="#000000" stroke="#000000" stroke-width="1.0" stroke-linecap="butt" d="m625.43555 407.0318l2.3684082 -4.2087097l-4.5196533 1.7016602z" fill-rule="evenodd"/>
        <path fill="#000000" fill-opacity="0.0" d="m507.0866 506.40652l121.82678 -52.251984" fill-rule="evenodd"/>
        <path stroke="#000000" stroke-width="1.0" stroke-linejoin="round" stroke-linecap="butt" d="m507.0866 506.40652l116.31256 -49.88687" fill-rule="evenodd"/>
        <path fill="#000000" stroke="#000000" stroke-width="1.0" stroke-linecap="butt" d="m624.05023 458.03763l3.5195923 -3.3068237l-4.8217163 0.2708435z" fill-rule="evenodd"/>
        <path fill="#000000" fill-opacity="0.0" d="m507.0866 506.40652l121.82678 0" fill-rule="evenodd"/>
        <path stroke="#000000" stroke-width="1.0" stroke-linejoin="round" stroke-linecap="butt" d="m507.0866 506.40652l115.82678 0" fill-rule="evenodd"/>
        <path fill="#000000" stroke="#000000" stroke-width="1.0" stroke-linecap="butt" d="m622.9134 508.05826l4.538086 -1.6517334l-4.538086 -1.6517334z" fill-rule="evenodd"/>
        <path fill="#000000" fill-opacity="0.0" d="m507.0866 506.40652l121.82678 52.251984" fill-rule="evenodd"/>
        <path stroke="#000000" stroke-width="1.0" stroke-linejoin="round" stroke-linecap="butt" d="m507.0866 506.40652l116.31256 49.886932" fill-rule="evenodd"/>
        <path fill="#000000" stroke="#000000" stroke-width="1.0" stroke-linecap="butt" d="m622.7481 557.81146l4.8217163 0.270813l-3.5195923 -3.3068237z" fill-rule="evenodd"/>
        <path fill="#000000" fill-opacity="0.0" d="m507.0866 506.40652l121.82678 104.53543" fill-rule="evenodd"/>
        <path stroke="#000000" stroke-width="1.0" stroke-linejoin="round" stroke-linecap="butt" d="m507.0866 506.40652l117.273315 100.628265" fill-rule="evenodd"/>
        <path fill="#000000" stroke="#000000" stroke-width="1.0" stroke-linecap="butt" d="m623.2843 608.2883l4.5196533 1.7016602l-2.3684082 -4.208679z" fill-rule="evenodd"/>
        <path fill="#000000" fill-opacity="0.0" d="m507.0866 454.13937l121.82678 156.78745" fill-rule="evenodd"/>
        <path stroke="#000000" stroke-width="1.0" stroke-linejoin="round" stroke-linecap="butt" d="m507.0866 454.1394l118.145386 152.04956" fill-rule="evenodd"/>
        <path fill="#000000" stroke="#000000" stroke-width="1.0" stroke-linecap="butt" d="m623.92773 607.2024l4.088684 2.5700073l-1.4801636 -4.596924z" fill-rule="evenodd"/>
        <path fill="#000000" fill-opacity="0.0" d="m507.0866 401.87225l121.82678 209.07086" fill-rule="evenodd"/>
        <path stroke="#000000" stroke-width="1.0" stroke-linejoin="round" stroke-linecap="butt" d="m507.0866 401.87225l118.80597 203.88678" fill-rule="evenodd"/>
        <path fill="#000000" stroke="#000000" stroke-width="1.0" stroke-linecap="butt" d="m624.46545 606.59064l3.711914 3.0893555l-0.857666 -4.7525635z" fill-rule="evenodd"/>
        <path fill="#000000" fill-opacity="0.0" d="m507.0866 349.60513l121.82678 261.32285" fill-rule="evenodd"/>
        <path stroke="#000000" stroke-width="1.0" stroke-linejoin="round" stroke-linecap="butt" d="m507.0866 349.6051l119.291565 255.88477" fill-rule="evenodd"/>
        <path fill="#000000" stroke="#000000" stroke-width="1.0" stroke-linecap="butt" d="m624.88116 606.18774l3.4144897 3.4152222l-0.42041016 -4.811035z" fill-rule="evenodd"/>
      </g>
    </g>
  </g>
  <g/>
</svg>
